<svg width="25" height="26" viewBox="0 0 25 26" fill="none" xmlns="http://www.w3.org/2000/svg">
<path d="M19.2791 20.2879V20.2879C21.8864 20.2879 23.9999 18.1743 23.9999 15.5671V6.5C23.9999 3.73858 21.7614 1.5 18.9999 1.5H9.81367C7.2196 1.5 5.1167 3.60291 5.1167 6.19697V6.19697" stroke="#101010" stroke-width="2"/>
<path d="M1 20.5L1 9.89394C1 7.6848 2.79086 5.89395 5 5.89395H15.7106C17.9198 5.89395 19.7107 7.68481 19.7107 9.89395V20.5C19.7107 22.7091 17.9198 24.5 15.7107 24.5H10.3553H5C2.79086 24.5 1 22.7091 1 20.5Z" stroke="#101010" stroke-width="2"/>
<path d="M13.0107 14.0227H10.6073C10.5902 13.8239 10.5448 13.6435 10.4709 13.4815C10.3999 13.3196 10.3005 13.1804 10.1726 13.0639C10.0476 12.9446 9.89564 12.8537 9.71666 12.7912C9.53768 12.7259 9.33456 12.6932 9.10729 12.6932C8.70956 12.6932 8.37291 12.7898 8.09734 12.983C7.82461 13.1761 7.61723 13.4531 7.47518 13.8139C7.33598 14.1747 7.26638 14.608 7.26638 15.1136C7.26638 15.6477 7.3374 16.0952 7.47944 16.456C7.62433 16.8139 7.83314 17.0838 8.10587 17.2656C8.37859 17.4446 8.70672 17.5341 9.09024 17.5341C9.30899 17.5341 9.50501 17.5071 9.67831 17.4531C9.8516 17.3963 10.0022 17.3153 10.13 17.2102C10.2579 17.1051 10.3615 16.9787 10.4411 16.831C10.5235 16.6804 10.5789 16.5114 10.6073 16.3239L13.0107 16.3409C12.9823 16.7102 12.8786 17.0867 12.6996 17.4702C12.5206 17.8509 12.2664 18.2031 11.9368 18.527C11.6101 18.848 11.2053 19.1065 10.7223 19.3026C10.2394 19.4986 9.67831 19.5966 9.0391 19.5966C8.23797 19.5966 7.51922 19.4247 6.88285 19.081C6.24933 18.7372 5.74791 18.2315 5.37859 17.5639C5.01211 16.8963 4.82888 16.0796 4.82888 15.1136C4.82888 14.1421 5.01638 13.3239 5.39138 12.6591C5.76638 11.9915 6.27206 11.4872 6.90842 11.1463C7.54479 10.8026 8.25501 10.6307 9.0391 10.6307C9.59024 10.6307 10.0973 10.706 10.5604 10.8565C11.0235 11.0071 11.4297 11.2273 11.7792 11.5171C12.1286 11.804 12.4098 12.1577 12.6229 12.5781C12.836 12.9986 12.9652 13.4801 13.0107 14.0227ZM15.3981 19.6136C15.0686 19.6136 14.7859 19.4986 14.5501 19.2685C14.3172 19.0355 14.2021 18.7528 14.2049 18.4205C14.2021 18.0966 14.3172 17.8196 14.5501 17.5895C14.7859 17.3594 15.0686 17.2443 15.3981 17.2443C15.7106 17.2443 15.9862 17.3594 16.2248 17.5895C16.4663 17.8196 16.5885 18.0966 16.5913 18.4205C16.5885 18.6421 16.5302 18.8438 16.4166 19.0256C16.3058 19.2046 16.1609 19.348 15.9819 19.456C15.803 19.5611 15.6084 19.6136 15.3981 19.6136Z" fill="#101010"/>
</svg>
